<svg width="56" height="36" viewBox="0 0 56 36" fill="none" xmlns="http://www.w3.org/2000/svg">
<path d="M0 19.187C0.0363231 28.4274 7.38553 36 16.4137 36C25.4642 36 32.8269 28.4579 32.8269 19.187V16.8135C32.8269 12.9961 35.8591 9.89007 39.5857 9.89007C43.3129 9.89007 46.3445 12.9961 46.3445 16.8135C46.3445 17.9059 47.2093 18.7916 48.2756 18.7916H54.0689C55.1358 18.7916 56 17.9059 56 16.8135C56 7.54264 48.6372 0 39.5863 0C30.5358 0 23.1725 7.54264 23.1725 16.8135V19.187C23.1725 23.005 20.1404 26.1099 16.4143 26.1099C12.6876 26.1099 9.65545 23.005 9.65545 19.187C9.65545 18.0947 8.79074 17.2089 7.72436 17.2089H1.93109C0.864708 17.2095 0 18.0947 0 19.187Z" fill="white"/>
</svg>
